.
..............................Site Info...........................

 -   http://www.scenetime.com  *_*   

SceneTime is going to Close sign up on march/1, hurry up! get in before the doors are closed.

     We care to share . Join us on  http://www.scenetime.com 

    Be the first to get new release at  http://www.scenetime.com

        Seed back for speed


...................................NFO:.................................................[img]http://img542.imageshack.us/img542/3050/tintine.jpg[/img]


[color=blue][size=4][b]The.Adventures.of.Tintin.2011.BDRip.XVID.AC3.HQ.Hive-CM8[/b][/size][/color]


[b] Thx Hive

CM8 Doing it right the first time :D

Source: Bluray

Video: 720x304 @bitrate 1700 2pass
Audio: English DTS to AC3 5.1 @448
Sample: yes included
Subs: yes english in srt /subs[/b]


[url]http://www.imdb.com/title/tt0983193/[/url]


General
Complete name                  : The.Adventures.of.Tintin.2011.BDRip.XVID.AC3.HQ.Hive-CM8.avi
Format                         : AVI
Format/Info                    : Audio Video Interleave
File size                      : 1.61 GiB
Duration                       : 1h 46mn
Overall bit rate               : 2 157 Kbps
Writing application            : Nandub v1.0rc2
Writing library                : Nandub build 1853/release

Video
ID                             : 0
Format                         : MPEG-4 Visual
Format profile                 : Advanced Simple@L5
Format settings, BVOP          : 1
Format settings, QPel          : Yes
Format settings, GMC           : No warppoints
Format settings, Matrix        : Default (H.263)
Muxing mode                    : Packed bitstream
Codec ID                       : XVID
Codec ID/Hint                  : XviD
Duration                       : 1h 46mn
Bit rate                       : 1 700 Kbps
Width                          : 720 pixels
Height                         : 304 pixels
Display aspect ratio           : 2.35:1
Frame rate                     : 23.976 fps
Color space                    : YUV
Chroma subsampling             : 4:2:0
Bit depth                      : 8 bits
Scan type                      : Progressive
Compression mode               : Lossy
Bits/(Pixel*Frame)             : 0.324
Stream size                    : 1.27 GiB (79%)
Writing library                : XviD 1.2.1 (UTC 2008-12-04)

Audio
ID                             : 1
Format                         : AC-3
Format/Info                    : Audio Coding 3
Mode extension                 : CM (complete main)
Codec ID                       : 2000
Duration                       : 1h 46mn
Bit rate mode                  : Constant
Bit rate                       : 448 Kbps
Channel(s)                     : 6 channels
Channel positions              : Front: L C R, Side: L R, LFE
Sampling rate                  : 48.0 KHz
Bit depth                      : 16 bits
Compression mode               : Lossy
Stream size                    : 342 MiB (21%)
Alignment                      : Split accross interleaves
Interleave, duration           : 42 ms (1.00 video frame)
Interleave, preload duration   : 500 ms



Intrepid reporter Tintin and Captain Haddock set off on a treasure hunt for a 
sunken ship commanded by Haddock's ancestor. 

 
Jamie Bell	... 	Tintin (voice)
Andy Serkis	... 	Captain Haddock / Sir Francis Haddock (voice)
Daniel Craig	... 	Rackham / Sakharine (voice)
Nick Frost	... 	Thomson (voice)
Simon Pegg	... 	Thompson (voice)
	


[img]http://img718.imageshack.us/img718/8255/tittiititi.png[/img]
[img]http://img705.imageshack.us/img705/9660/tittiittiiti.png[/img]
[img]http://img840.imageshack.us/img840/5213/tittiiti.png[/img]
[img]http://img100.imageshack.us/img100/3398/tittii.png[/img]
[img]http://img856.imageshack.us/img856/958/titi.png[/img]
[img]http://img26.imageshack.us/img26/5206/18536612.png[/img]
[img]http://img833.imageshack.us/img833/5286/tittiittitiiti.png[/img]





Greetz

ViSiON,SPK,SceneLovers,PRESTiGE,SANTi,3LT0N,YanKeeS,MAGNET,THC,T0XiC,LKRG,Feel-Free,FLAWL3SS,
WBZ,BHRG,SiC,26K,NOVA,D2U,TED,COPYxRIGHT,jtr,Rapeseed,SAFC,goldadvance,KaN1vE,Unevano,Pinnz,Wayne
Mr Hive,and most P2P groups
Great Work Guys :D


LOOKING FOR ANYTHING YOU WANT TO LOOK AND SOUND BETTER

CM8@hushmail.com